<svg width="96" height="96" xmlns="http://www.w3.org/2000/svg" xmlns:xlink="http://www.w3.org/1999/xlink" xml:space="preserve" overflow="hidden"><g transform="translate(-64 -340)"><path d="M137.5 362 133.6 365.9C146 378.3 146 398.5 133.6 410.9L137.5 414.8C152.1 400.3 152.1 376.6 137.5 362Z"/><path d="M129.6 369.8 125.7 373.7C133.8 381.8 133.8 394.9 125.7 403.1L129.6 407C139.9 396.7 139.9 380.1 129.6 369.8Z"/><path d="M121.9 377.8 118 381.7C121.8 385.5 121.8 391.6 118 395.4L121.9 399.3C127.9 393.3 127.9 383.7 121.9 377.8Z"/><path d="M67.5 374.6 67.5 401.4 86.9 401.4 112 422 112 354 86.9 374.6Z"/></g></svg>